<svg xmlns="http://www.w3.org/2000/svg" viewBox="0 0 420 420">
	<title>Sass</title>
	<path fill="#cf649a" d="M210 4.564c113.458 0 205.435 91.977 205.435 205.436 0 113.458-91.978 205.435-205.435 205.435C96.542 415.436 4.564 323.459 4.564 210 4.564 96.542 96.542 4.564 210 4.564"/>
	<path fill="#fff" d="M338.863 92.494c-9.303-36.486-69.801-48.48-127.059-28.139-34.075 12.106-70.965 31.106-97.488 55.916-31.537 29.497-36.566 55.172-34.494 65.9 7.312 37.854 59.18 62.597 80.501 80.954v.111c-6.287 3.095-52.303 26.384-63.072 50.191-11.363 25.117 1.808 43.141 10.529 45.565 27.018 7.519 54.745-6.003 69.645-28.228 14.378-21.448 13.182-49.145 6.933-62.921 8.619-2.274 18.669-3.293 31.44-1.802 36.037 4.209 43.107 26.711 41.756 36.127-1.352 9.418-8.91 14.596-11.438 16.158-2.527 1.564-3.299 2.105-3.086 3.268.307 1.689 1.477 1.627 3.631 1.262 2.967-.5 18.924-7.66 19.605-25.043.869-22.07-20.28-46.758-57.729-46.113-15.424.267-25.121 1.733-32.127 4.34a71.867 71.867 0 0 0-1.59-1.758c-23.151-24.701-65.951-42.174-64.135-75.38.66-12.072 4.856-43.861 82.238-82.421 63.391-31.587 114.137-22.894 122.906-3.631 12.527 27.522-27.121 78.673-92.951 86.052-25.081 2.812-38.288-6.909-41.573-10.529-3.458-3.812-3.973-3.984-5.265-3.268-2.103 1.165-.77 4.53 0 6.536 1.966 5.115 10.031 14.185 23.782 18.698 12.097 3.97 41.544 6.151 77.158-7.624 39.885-15.428 71.032-58.347 61.883-94.221M169.174 278.432c2.988 11.056 2.661 21.366-.427 30.703a50.312 50.312 0 0 1-2.461 6.078c-2.381 4.939-5.575 9.563-9.488 13.832-11.937 13.021-28.613 17.945-35.764 13.797-7.722-4.477-3.855-22.836 9.985-37.465 14.887-15.738 36.308-25.857 36.308-25.857l-.032-.064a340.79 340.79 0 0 0 1.879-1.024"/>
</svg>
